<?xml version="1.0" encoding="utf-8"?>
<!-- Generator: Adobe Illustrator 26.5.0, SVG Export Plug-In . SVG Version: 6.00 Build 0)  -->
<svg version="1.1" id="Layer_1" xmlns="http://www.w3.org/2000/svg" xmlns:xlink="http://www.w3.org/1999/xlink" x="0px" y="0px"
	 viewBox="0 0 254.3 300.9" style="enable-background:new 0 0 254.3 300.9;" xml:space="preserve">
<style type="text/css">
	.st0{fill-rule:evenodd;clip-rule:evenodd;fill:#FD5D31;}
	.st1{fill-rule:evenodd;clip-rule:evenodd;fill:#0F043A;}
	.st2{fill-rule:evenodd;clip-rule:evenodd;fill:#D386F7;}
	.st3{fill-rule:evenodd;clip-rule:evenodd;fill:#FFFFFF;}
	.st4{fill:#0F043A;}
</style>
<g>
	<g>
		<path class="st0" d="M85.4,55c-0.3-0.6-1-0.8-1.6-0.5C80.3,56,66.9,64.2,60,67.6c-0.3,0.1-0.6,0.4-0.8,1c-0.1,0.4,0,1.3,0.2,2.6
			c0.7,5.3,2.8,18.4-9.3,23.9c-12.1,5.5-20.4-3.5-24.1-6.8c-0.8-0.7-1.5-1.2-2-1.4c-0.6-0.2-1-0.1-1.4,0C10,93.5,2.1,97.5,0.6,98.4
			c-0.3,0.2-0.8,0.7-0.6,1.6c0.2,0.6,1,2.3,2.7,4.4c7.5,10,31.1,32.2,63.2,15.4C95.7,104.2,92.2,67.8,85.4,55L85.4,55z"/>
	</g>
	<g>
		<path class="st1" d="M125.9,61.4c-0.3-0.6-1-0.8-1.6-0.5c-3.5,1.6-16.9,9.8-23.8,13.2c-0.3,0.1-0.6,0.4-0.8,1
			c-0.1,0.4,0,1.3,0.2,2.6c0.7,5.3,2.8,18.4-9.3,23.9c-12.1,5.5-20.4-3.5-24.1-6.8c-0.8-0.7-1.5-1.2-2-1.4c-0.6-0.2-1-0.1-1.4,0
			C50.6,100,42.6,104,41.2,104.9c-0.3,0.2-0.8,0.7-0.6,1.6c0.2,0.6,1,2.3,2.7,4.4c7.5,10,31.1,32.2,63.2,15.4
			C136.2,110.7,132.8,74.2,125.9,61.4L125.9,61.4z M43.3,106.5c0.4,0.7,1.1,1.8,1.9,3c7.1,9.5,29.6,30.7,60.1,14.7
			c27.4-14.4,25.1-47.5,19-60.5c-4.4,2.3-15.6,9.1-22.1,12.3c0,0.4,0.1,0.9,0.2,1.4c0.8,5.9,2.7,20.4-10.7,26.5
			c-11.8,5.3-20.3-1.4-25-5.7c-0.9-0.8-1.6-1.5-2.2-2c-0.1-0.1-0.3-0.2-0.4-0.3C53.2,101.4,46,105.1,43.3,106.5L43.3,106.5z"/>
	</g>
	<g>
		<g>
			<path class="st1" d="M189.5,1.3c-0.1,31.2-1,74.2-0.7,100.5c0,0.7,0.6,1.3,1.3,1.3c0.7,0,1.3-0.6,1.3-1.3
				c-0.2-26.3,0.6-69.2,0.7-100.5c0-0.7-0.6-1.3-1.3-1.3C190.1,0,189.5,0.6,189.5,1.3L189.5,1.3z"/>
		</g>
		<g>
			<path class="st1" d="M149.4,57c22.6-0.3,58.9-1.1,82.4-1.6c0.7,0,1.3-0.6,1.3-1.4c0-0.7-0.6-1.3-1.4-1.3
				c-23.5,0.5-59.7,1.3-82.3,1.6c-0.7,0-1.3,0.6-1.3,1.3C148,56.5,148.7,57,149.4,57L149.4,57z"/>
		</g>
		<g>
			<path class="st1" d="M208.3,32.4c-12.2,14.7-24.6,28.5-38.1,43.4c-0.5,0.5-0.5,1.4,0.1,1.9c0.5,0.5,1.4,0.5,1.9-0.1
				c13.5-14.9,26-28.8,38.2-43.5c0.5-0.6,0.4-1.4-0.2-1.9C209.6,31.8,208.8,31.9,208.3,32.4L208.3,32.4z"/>
		</g>
		<g>
			<path class="st1" d="M169.4,35.5C184.3,50.1,195,59.8,211.1,75c0.5,0.5,1.4,0.5,1.9-0.1c0.5-0.5,0.5-1.4-0.1-1.9
				c-16.1-15.2-26.7-24.8-41.6-39.4c-0.5-0.5-1.4-0.5-1.9,0C168.9,34.2,168.9,35,169.4,35.5L169.4,35.5z"/>
		</g>
	</g>
	<g>
		<path class="st2" d="M233.4,171.8c-1.4-3.2-8.7-1.4-12.4-1.6c-3.6-0.2-7.5-2.6-11.1-1.9c-4.9,0.9-7.5,7.3-11.3,10.2
			c-6.7,5.1-17.4-3.3-21.7,5.2c-4.4,8.9,1.6,28.8-7.1,34.4c-7.5,4.9-22.3-12.7-35.2,6.2c-2,2.9-1.9,10.2,0.7,15.5
			c3.9,7.9,18.5,8.6,19.9,11.2c5.2,9.6,4.7,23,4.7,34.6c0,2,15.2,1.7,29.2,3.9c14.1,2.2,29.7,6.1,30.3,5.8
			c1.4-0.7-1.1-24.7,0.8-25.8c10.1-5.8,14.5-11.1,17.8-22.3C244.2,226.5,236.8,179.9,233.4,171.8L233.4,171.8z"/>
	</g>
	<g>
		<path class="st1" d="M136.3,218.9c0.8,2,11.2-5.6,14.5-5.2c5.3,0.7,17.4,13.3,20.4,5.1c3.9-10.8-0.9-27.4,9.3-36.3
			c5.3-4.6,11.5-0.2,16.8-3.3c5.5-3.2,4.7-11.6,12.4-11.8c3.9-0.1,6.4,2.9,10.1,3c3.8,0.1,6.3-2.6,10-2.4c1.9,0.1,3.4,4.7,4.8,4.2
			c3.8-1.2,19.3-16.4,19.7-20.5c0.5-5.8-5.3-8.1-6.2-11.6c-1.1-4.2-0.7-7.5-3.6-11.3c-3.8-5.1-9-3.5-14.1-4
			c-4.4-0.4-3.1-5.2-9.1-7.8c-5.5-2.4-7.8,0.4-11.3-0.6c-5.4-1.6-4.1-5.8-11.8-5.9c-6.1-0.1-7.2,5.4-11.8,6.4
			c-4.5,0.9-4.9-4.8-13.5-1c-5.7,2.4-4.6,6.3-9.4,9.4c-3.7,2.5-5.7-2.2-13.1,2.9c-5,3.4-4.5,7.4-8,11.7c-3.1,3.9-9,3.2-12.6,6.6
			c-4.8,4.6-1.2,11.4-2.9,17c-1.3,4.1-11.4,8.5-7.9,17.9C123.3,193.1,133.7,212.1,136.3,218.9L136.3,218.9z"/>
	</g>
	<g>
		<path class="st3" d="M227.5,243c-1.1-5.9-8.6-3.7-13.1-6.4c-6.3-3.7-9.6-9.7-14.1-7c-6.2,3.8,1,17.4,10,20.4
			C222.4,253.9,228.2,246.7,227.5,243L227.5,243z"/>
	</g>
	<g>
		<path class="st1" d="M214.6,191.3c1.7,7.6-22.4,13.7-24,5.4C189.2,189.7,213,184.1,214.6,191.3L214.6,191.3z"/>
	</g>
	<g>
		<path class="st1" d="M228.8,191.6c2.2-5.9,21,4,17,10.7C243,206.9,226,199.1,228.8,191.6L228.8,191.6z"/>
	</g>
	<g>
		<g>
			<path class="st1" d="M149.8,222c-6.6,2.2-9.5,10-8.1,15.3c0.2,0.9,1.2,1.4,2,1.2c0.9-0.2,1.4-1.2,1.2-2c-1-3.9,1.1-9.6,5.9-11.3
				c0.9-0.3,1.3-1.2,1-2.1C151.6,222.2,150.7,221.8,149.8,222z"/>
		</g>
		<g>
			<path class="st1" d="M209.7,251.6c9.6,3.1,15.6-0.2,18.1-3.8c1.3-1.8,1.7-3.7,1.4-5.2c-0.6-3.1-2.5-4.5-5-5.3
				c-1.5-0.5-3.2-0.7-4.9-1c-1.4-0.2-2.8-0.5-4-1.2c-3.8-2.3-6.5-5.3-9-6.8c-2.3-1.3-4.4-1.7-6.9-0.2c-3.1,1.9-3.8,5.7-2.5,9.9
				C198.6,243.6,203.8,249.7,209.7,251.6z M201.1,231.1c1.6-1,2.9-0.2,4.5,1c2.2,1.7,4.7,4.1,7.9,6c2.4,1.4,5.6,1.6,8.4,2.2
				c1.9,0.4,3.5,0.9,3.9,3c0.2,1.1-0.5,2.4-1.7,3.6c-2.4,2.2-6.8,3.5-13.3,1.4c-4.9-1.6-9.2-6.7-10.6-11.3
				C199.3,234.6,199.3,232.2,201.1,231.1z"/>
		</g>
		<g>
			<path class="st1" d="M216.5,229.3c3.3,0.5,5.7,0.6,7.4,0.2c1.5-0.3,2.6-1,3.3-1.9c0.7-0.9,1.2-2,1.4-3.6c0.2-1.8,0.1-4.3-0.3-7.6
				c-0.2-2-0.9-5.9-1.5-10.3c-0.1-0.9-1-1.6-1.9-1.5c-0.9,0.1-1.6,1-1.5,1.9c0.6,4.4,1.2,8.3,1.5,10.2c0.3,2.4,0.5,4.4,0.4,6
				c-0.1,1.2-0.2,2-0.7,2.6c-0.4,0.5-1.1,0.7-2,0.8c-1.4,0.1-3.2,0-5.6-0.3c-0.9-0.1-1.8,0.5-2,1.5
				C214.9,228.3,215.6,229.2,216.5,229.3z"/>
		</g>
		<g>
			<path class="st1" d="M149.5,250c1.7,0.3,3.4,0.5,4.2,0.6c5.1,11,5.1,22.8,4.2,35.1c-3.5-0.3-7.1-0.6-10.6-0.9
				c-2.1,0.1-2.3,2.9,1.7,3.5c8.8,0.9,17.7,1.3,25.9,2.1c16.9,1.7,34.9,4.9,52.4,10.2c3.5,1.4,5.5-1.3,2.5-2.7
				c-2.9-0.9-5.9-1.8-8.9-2.6c0.2-7.7-0.1-12.9,0.3-23.3c0.2-0.1,0.4-0.1,0.6-0.2c6.2-2.6,10.8-7.5,14.6-14.9c3.6-7,5.4-17.7,5.4-27
				c0-11.4-0.4-25.3-3.1-42.4c-0.9-5.8-2.5-11.9-4.1-15.6c-0.8-1.9-1.8-3.2-2.6-3.8c-1.7-1.2-3.5-1.1-5.3-0.3
				c-1,0.4-2.1,1.1-3.1,1.6c-0.7,0.4-1.5,0.8-2.1,0.9c-2.1,0.2-3.7-1-5.6-1.9c-2.5-1.2-5.1-2.2-8.6-1c-3.3,1.1-5.1,3.6-6.8,6.2
				c-1.3,2-2.4,4.1-4.5,5.1c-1.8,0.8-3.9,0.2-5.9-0.1c-2.8-0.5-5.7-0.8-8.5,0.9c-3.5,2.1-5.8,6.1-7.3,10.8
				c-2.1,6.5-2.7,14.3-3.3,19.1c-0.2,1.8-0.1,4.1-0.3,6.3c-0.1,1.7-0.4,3.2-1.6,4.2c-0.7,0.5-1.2,0.8-1.8,0.8
				c-0.9,0-1.7-0.5-2.7-1.2c-2.2-1.6-4.7-4-8.2-5.1c-7-2.1-13.3-1.1-17.9,2c-4.7,3.2-7.6,8.5-7.8,15
				C130.4,245.2,142.1,248.8,149.5,250z M140.4,219c3.9-2.6,9.2-3.4,15.1-1.6c2.2,0.7,3.9,1.9,5.3,3.1c1.2,0.9,2.2,1.8,3.3,2.4
				c1.1,0.6,2.2,1,3.4,0.9c1.2,0,2.4-0.5,3.7-1.5c1.6-1.2,2.4-3,2.7-5.1c0.4-2.5,0.2-5.4,0.5-7.6c0.6-4.6,1.2-12.2,3.2-18.5
				c1.2-3.8,3-7.2,5.8-9c2.5-1.5,5.2-0.7,7.7-0.2c2.3,0.4,4.5,0.5,6.5-0.4c2.7-1.2,4.3-3.8,5.9-6.3c1.3-2,2.6-4,5-4.9
				c3-1.1,5.1,0.3,7.2,1.4c1.9,1,3.9,1.8,6.2,1.6c1.7-0.2,3.5-1.4,5.3-2.3c0.5-0.3,1-0.5,1.6-0.6c0.5-0.1,0.9-0.1,1.4,0.2
				c0.7,0.5,1.4,2.1,2.1,4.1c1.3,3.5,2.5,8.5,3.3,13.2c2.7,16.9,3.1,30.7,3.1,41.9c0,8.7-1.7,18.9-5.1,25.5
				c-3.4,6.6-7.4,11-12.9,13.3c-5.6,2.3-12.8,2.5-22.3,0.6c-2.9-0.6-7.9-2.5-12.1-4.8c-2.6-1.4-4.9-2.9-5.9-4.2
				c-0.6-0.7-1.6-0.9-2.4-0.3c-0.7,0.6-0.9,1.6-0.3,2.4c1.2,1.6,3.9,3.5,7,5.2c4.5,2.4,9.9,4.5,13,5.1c8.2,1.6,14.8,1.7,20.2,0.4
				c-0.3,9.2-0.1,14.3-0.3,21.3c-14.3-3.6-28.8-6-42.5-7.4c-4.5-0.4-9.2-0.8-14-1.1c0.9-13.1,0.8-25.7-4.9-37.4
				c-0.1-0.3-0.4-0.7-1-0.9c-0.4-0.2-1.4-0.3-2.8-0.5c-5.5-0.7-18.8-2.2-18.5-15.7C134.2,226,136.6,221.6,140.4,219z"/>
		</g>
		<g>
			<path class="st1" d="M196.8,210c6.2,3.1,13.8-0.3,16.6-5c0.5-0.8,0.2-1.8-0.6-2.3c-0.8-0.5-1.8-0.2-2.3,0.6
				c-2,3.5-7.6,6-12.2,3.7c-0.8-0.4-1.8-0.1-2.2,0.7C195.6,208.6,195.9,209.6,196.8,210z"/>
		</g>
		<g>
			<path class="st1" d="M239.8,212.6c-0.2-0.8-0.2-1.5,0-2.1c-2.7-0.6-5.4-2.3-6.6-5c-0.4-0.8-1.4-1.2-2.2-0.8
				c-0.8,0.4-1.2,1.4-0.8,2.2c1.9,4.1,6,6.5,10,7.1C240,213.4,239.9,213,239.8,212.6z"/>
		</g>
	</g>
	<g>
		<g>
			<path class="st3" d="M66.2,183.1c9.7,0,17.5,7.9,17.5,17.6c0,9.7-7.8,17.6-17.5,17.6c-9.7,0-17.5-7.9-17.5-17.6
				C48.7,191,56.5,183.1,66.2,183.1L66.2,183.1z"/>
		</g>
		<g>
			<path class="st4" d="M66.2,219.7c-10.4,0-18.9-8.5-18.9-19c0-10.5,8.5-19,18.9-19c10.4,0,18.9,8.5,18.9,19
				C85.1,211.1,76.6,219.7,66.2,219.7z M66.2,184.5c-8.9,0-16.1,7.3-16.1,16.2c0,8.9,7.2,16.2,16.1,16.2c8.9,0,16.1-7.3,16.1-16.2
				C82.2,191.7,75,184.5,66.2,184.5z"/>
		</g>
	</g>
</g>
</svg>
